<svg width="25" height="24" viewBox="0 0 25 24" fill="none" xmlns="http://www.w3.org/2000/svg">
<path fill-rule="evenodd" clip-rule="evenodd" d="M7.70001 1.59998C7.91218 1.59998 8.11566 1.68426 8.26569 1.83429C8.41572 1.98432 8.50001 2.1878 8.50001 2.39998V3.19998H16.5V2.39998C16.5 2.1878 16.5843 1.98432 16.7343 1.83429C16.8844 1.68426 17.0878 1.59998 17.3 1.59998C17.5122 1.59998 17.7157 1.68426 17.8657 1.83429C18.0157 1.98432 18.1 2.1878 18.1 2.39998V3.19998H20.5C21.1365 3.19998 21.747 3.45283 22.1971 3.90292C22.6472 4.35301 22.9 4.96346 22.9 5.59998V20C22.9 20.6365 22.6472 21.2469 22.1971 21.697C21.747 22.1471 21.1365 22.4 20.5 22.4H4.50001C3.86349 22.4 3.25304 22.1471 2.80295 21.697C2.35286 21.2469 2.10001 20.6365 2.10001 20V5.59998C2.10001 4.96346 2.35286 4.35301 2.80295 3.90292C3.25304 3.45283 3.86349 3.19998 4.50001 3.19998H6.90001V2.39998C6.90001 2.1878 6.98429 1.98432 7.13432 1.83429C7.28435 1.68426 7.48783 1.59998 7.70001 1.59998ZM16.5 4.79998V5.59998C16.5 5.81215 16.5843 6.01563 16.7343 6.16566C16.8844 6.31569 17.0878 6.39998 17.3 6.39998C17.5122 6.39998 17.7157 6.31569 17.8657 6.16566C18.0157 6.01563 18.1 5.81215 18.1 5.59998V4.79998H20.5C20.7122 4.79998 20.9157 4.88426 21.0657 5.03429C21.2157 5.18432 21.3 5.3878 21.3 5.59998V7.99998H3.70001V5.59998C3.70001 5.3878 3.78429 5.18432 3.93432 5.03429C4.08435 4.88426 4.28783 4.79998 4.50001 4.79998H6.90001V5.59998C6.90001 5.81215 6.98429 6.01563 7.13432 6.16566C7.28435 6.31569 7.48783 6.39998 7.70001 6.39998C7.91218 6.39998 8.11566 6.31569 8.26569 6.16566C8.41572 6.01563 8.50001 5.81215 8.50001 5.59998V4.79998H16.5ZM3.70001 9.59998V20C3.70001 20.2122 3.78429 20.4156 3.93432 20.5657C4.08435 20.7157 4.28783 20.8 4.50001 20.8H20.5C20.7122 20.8 20.9157 20.7157 21.0657 20.5657C21.2157 20.4156 21.3 20.2122 21.3 20V9.59998H3.70001ZM11.7 12C11.7 11.7878 11.7843 11.5843 11.9343 11.4343C12.0844 11.2843 12.2878 11.2 12.5 11.2C12.7122 11.2 12.9157 11.2843 13.0657 11.4343C13.2157 11.5843 13.3 11.7878 13.3 12C13.3 12.2121 13.2157 12.4156 13.0657 12.5657C12.9157 12.7157 12.7122 12.8 12.5 12.8C12.2878 12.8 12.0844 12.7157 11.9343 12.5657C11.7843 12.4156 11.7 12.2121 11.7 12ZM15.7 11.2C15.4878 11.2 15.2844 11.2843 15.1343 11.4343C14.9843 11.5843 14.9 11.7878 14.9 12C14.9 12.2121 14.9843 12.4156 15.1343 12.5657C15.2844 12.7157 15.4878 12.8 15.7 12.8C15.9122 12.8 16.1157 12.7157 16.2657 12.5657C16.4157 12.4156 16.5 12.2121 16.5 12C16.5 11.7878 16.4157 11.5843 16.2657 11.4343C16.1157 11.2843 15.9122 11.2 15.7 11.2ZM18.1 12C18.1 11.7878 18.1843 11.5843 18.3343 11.4343C18.4844 11.2843 18.6878 11.2 18.9 11.2C19.1122 11.2 19.3157 11.2843 19.4657 11.4343C19.6157 11.5843 19.7 11.7878 19.7 12C19.7 12.2121 19.6157 12.4156 19.4657 12.5657C19.3157 12.7157 19.1122 12.8 18.9 12.8C18.6878 12.8 18.4844 12.7157 18.3343 12.5657C18.1843 12.4156 18.1 12.2121 18.1 12ZM18.9 14.4C18.6878 14.4 18.4844 14.4843 18.3343 14.6343C18.1843 14.7843 18.1 14.9878 18.1 15.2C18.1 15.4122 18.1843 15.6156 18.3343 15.7657C18.4844 15.9157 18.6878 16 18.9 16C19.1122 16 19.3157 15.9157 19.4657 15.7657C19.6157 15.6156 19.7 15.4122 19.7 15.2C19.7 14.9878 19.6157 14.7843 19.4657 14.6343C19.3157 14.4843 19.1122 14.4 18.9 14.4ZM14.9 15.2C14.9 14.9878 14.9843 14.7843 15.1343 14.6343C15.2844 14.4843 15.4878 14.4 15.7 14.4C15.9122 14.4 16.1157 14.4843 16.2657 14.6343C16.4157 14.7843 16.5 14.9878 16.5 15.2C16.5 15.4122 16.4157 15.6156 16.2657 15.7657C16.1157 15.9157 15.9122 16 15.7 16C15.4878 16 15.2844 15.9157 15.1343 15.7657C14.9843 15.6156 14.9 15.4122 14.9 15.2ZM12.5 14.4C12.2878 14.4 12.0844 14.4843 11.9343 14.6343C11.7843 14.7843 11.7 14.9878 11.7 15.2C11.7 15.4122 11.7843 15.6156 11.9343 15.7657C12.0844 15.9157 12.2878 16 12.5 16C12.7122 16 12.9157 15.9157 13.0657 15.7657C13.2157 15.6156 13.3 15.4122 13.3 15.2C13.3 14.9878 13.2157 14.7843 13.0657 14.6343C12.9157 14.4843 12.7122 14.4 12.5 14.4ZM8.50001 15.2C8.50001 14.9878 8.58429 14.7843 8.73432 14.6343C8.88435 14.4843 9.08783 14.4 9.30001 14.4C9.51218 14.4 9.71566 14.4843 9.86569 14.6343C10.0157 14.7843 10.1 14.9878 10.1 15.2C10.1 15.4122 10.0157 15.6156 9.86569 15.7657C9.71566 15.9157 9.51218 16 9.30001 16C9.08783 16 8.88435 15.9157 8.73432 15.7657C8.58429 15.6156 8.50001 15.4122 8.50001 15.2ZM6.10001 14.4C5.88783 14.4 5.68435 14.4843 5.53432 14.6343C5.38429 14.7843 5.30001 14.9878 5.30001 15.2C5.30001 15.4122 5.38429 15.6156 5.53432 15.7657C5.68435 15.9157 5.88783 16 6.10001 16C6.31218 16 6.51566 15.9157 6.66569 15.7657C6.81572 15.6156 6.90001 15.4122 6.90001 15.2C6.90001 14.9878 6.81572 14.7843 6.66569 14.6343C6.51566 14.4843 6.31218 14.4 6.10001 14.4ZM5.30001 18.4C5.30001 18.1878 5.38429 17.9843 5.53432 17.8343C5.68435 17.6843 5.88783 17.6 6.10001 17.6C6.31218 17.6 6.51566 17.6843 6.66569 17.8343C6.81572 17.9843 6.90001 18.1878 6.90001 18.4C6.90001 18.6122 6.81572 18.8156 6.66569 18.9657C6.51566 19.1157 6.31218 19.2 6.10001 19.2C5.88783 19.2 5.68435 19.1157 5.53432 18.9657C5.38429 18.8156 5.30001 18.6122 5.30001 18.4ZM9.30001 17.6C9.08783 17.6 8.88435 17.6843 8.73432 17.8343C8.58429 17.9843 8.50001 18.1878 8.50001 18.4C8.50001 18.6122 8.58429 18.8156 8.73432 18.9657C8.88435 19.1157 9.08783 19.2 9.30001 19.2C9.51218 19.2 9.71566 19.1157 9.86569 18.9657C10.0157 18.8156 10.1 18.6122 10.1 18.4C10.1 18.1878 10.0157 17.9843 9.86569 17.8343C9.71566 17.6843 9.51218 17.6 9.30001 17.6ZM11.7 18.4C11.7 18.1878 11.7843 17.9843 11.9343 17.8343C12.0844 17.6843 12.2878 17.6 12.5 17.6C12.7122 17.6 12.9157 17.6843 13.0657 17.8343C13.2157 17.9843 13.3 18.1878 13.3 18.4C13.3 18.6122 13.2157 18.8156 13.0657 18.9657C12.9157 19.1157 12.7122 19.2 12.5 19.2C12.2878 19.2 12.0844 19.1157 11.9343 18.9657C11.7843 18.8156 11.7 18.6122 11.7 18.4ZM15.7 17.6C15.4878 17.6 15.2844 17.6843 15.1343 17.8343C14.9843 17.9843 14.9 18.1878 14.9 18.4C14.9 18.6122 14.9843 18.8156 15.1343 18.9657C15.2844 19.1157 15.4878 19.2 15.7 19.2C15.9122 19.2 16.1157 19.1157 16.2657 18.9657C16.4157 18.8156 16.5 18.6122 16.5 18.4C16.5 18.1878 16.4157 17.9843 16.2657 17.8343C16.1157 17.6843 15.9122 17.6 15.7 17.6Z" fill="white"/>
</svg>
