<svg width="25" height="23" viewBox="0 0 25 23" fill="none" xmlns="http://www.w3.org/2000/svg">
<path d="M4.517 16.841C4.6727 16.9973 4.792 17.186 4.86641 17.3937C4.94082 17.6014 4.96851 17.8229 4.9475 18.0425C4.84208 19.0589 4.64221 20.0632 4.3505 21.0425C6.443 20.558 7.721 19.997 8.3015 19.703C8.63076 19.5362 9.00993 19.4967 9.3665 19.592C10.3887 19.8645 11.4421 20.0017 12.5 20C18.494 20 23 15.7895 23 11C23 6.212 18.494 2 12.5 2C6.506 2 2 6.212 2 11C2 13.202 2.9255 15.245 4.517 16.841ZM3.7775 22.6985C3.4221 22.769 3.06555 22.8335 2.708 22.892C2.408 22.94 2.18 22.628 2.2985 22.349C2.43169 22.0349 2.55376 21.7162 2.6645 21.3935L2.669 21.3785C3.041 20.2985 3.344 19.0565 3.455 17.9C1.6145 16.055 0.5 13.64 0.5 11C0.5 5.201 5.873 0.5 12.5 0.5C19.127 0.5 24.5 5.201 24.5 11C24.5 16.799 19.127 21.5 12.5 21.5C11.3115 21.5016 10.1279 21.3473 8.9795 21.041C8.1995 21.4355 6.521 22.154 3.7775 22.6985Z" fill="white"/>
</svg>
