<svg width="24" height="25" viewBox="0 0 24 25" fill="none" xmlns="http://www.w3.org/2000/svg">
<path d="M12 14.5C14.206 14.5 16 12.706 16 10.5C16 8.294 14.206 6.5 12 6.5C9.794 6.5 8 8.294 8 10.5C8 12.706 9.794 14.5 12 14.5ZM12 8.5C13.103 8.5 14 9.397 14 10.5C14 11.603 13.103 12.5 12 12.5C10.897 12.5 10 11.603 10 10.5C10 9.397 10.897 8.5 12 8.5Z" fill="white"/>
<path d="M11.42 22.314C11.5892 22.4349 11.792 22.4998 12 22.4998C12.208 22.4998 12.4107 22.4349 12.58 22.314C12.884 22.099 20.029 16.94 20 10.5C20 6.089 16.411 2.5 12 2.5C7.589 2.5 4 6.089 4 10.495C3.971 16.94 11.116 22.099 11.42 22.314ZM12 4.5C15.309 4.5 18 7.191 18 10.505C18.021 14.943 13.612 18.928 12 20.235C10.389 18.927 5.979 14.941 6 10.5C6 7.191 8.691 4.5 12 4.5Z" fill="white"/>
</svg>
